<svg xmlns="http://www.w3.org/2000/svg" xmlns:xlink="http://www.w3.org/1999/xlink"><symbol id="elephant" viewBox="0 0 128 128"><path d="m125.332 29.701c-1.501-8.249-7.393-15.345-15.374-18.521-16.615-6.61-25.849 4.741-28.882 9.553-3.151-1.844-6.634-3.11-10.361-3.592v-3.191c0-.552-.447-1-1-1s-1 .448-1 1v3.014c-.452-.023-.905-.042-1.363-.042-.454 0-.903.019-1.352.042v-3.014c0-.552-.447-1-1-1s-1 .448-1 1v3.19c-4.523.582-8.686 2.324-12.332 4.849-1.937-3.52-11.282-18.104-29.626-10.809-7.981 3.176-13.873 10.273-15.374 18.521-1.183 6.498.655 12.515 5.04 16.509 7.773 7.08 7.816 9.858 7.875 13.705.02 1.275.042 2.721.322 4.44.889 5.451 5.07 11.273 10.529 11.581.133.008.271.012.412.012 2.791 0 7.27-1.586 10.916-10.249.935 1.253 1.99 2.418 3.148 3.495-4.999 3.38-5.989 10.848-5.872 16.869-.654 1.228-1.232 2.487-1.733 3.766-.515-.069-1.029-.25-1.481-.55-.222-.147-.433-.323-.628-.52.778-.268 1.441-.647 1.877-1.119.974-1.052 1.323-2.316.958-3.468-.307-.964-1.092-1.69-2.05-1.894-1.057-.225-2.134.191-2.974 1.136-.816.918-1.162 2.062-1 3.308.021.159.051.32.089.48-.433-.019-.865-.082-1.275-.2-1.044-.303-1.653-.885-1.81-1.731-.101-.543-.623-.902-1.165-.801-.544.101-.902.623-.802 1.166.297 1.605 1.44 2.772 3.221 3.288.843.245 1.793.325 2.718.265.465.695 1.063 1.311 1.735 1.756.589.39 1.239.644 1.903.786-.283.862-.53 1.729-.742 2.599-4.533 1.378-7.843 5.594-7.843 10.571 0 6.093 4.956 11.049 11.049 11.049 1.188 0 2.331-.194 3.404-.542l.121.978c.178 1.453.947 2.78 2.108 3.643 1.682 1.249 4.378 2.748 7.679 2.804.074.001.147.002.221.002 3.023 0 5.366-1.058 6.811-1.957 1.324-.825 2.128-2.376 2.098-4.048-.001-.037-.004-.073-.008-.109l-.612-4.754c1.656.179 3.357.277 5.094.277 1.744 0 3.446-.082 5.102-.23l-.619 4.704c-.005.037-.008.075-.009.112-.03 1.672.773 3.224 2.098 4.048 1.445.899 3.787 1.957 6.811 1.957.073 0 .147-.001.221-.002 3.301-.056 5.997-1.555 7.679-2.804 1.161-.863 1.931-2.19 2.108-3.643l.121-.978c1.073.349 2.216.542 3.404.542 6.093 0 11.049-4.957 11.049-11.049 0-4.782-3.059-8.853-7.319-10.388-.465-3.002-1.731-6.192-3.678-9.296.008-5.247-.896-11.338-4.489-14.875.972-.794 1.881-1.646 2.72-2.553 3.442 6.826 7.404 8.155 9.956 8.155.142 0 .279-.004.412-.012 5.459-.307 9.641-6.129 10.529-11.58.28-1.72.303-3.166.322-4.441.059-3.846.102-6.625 7.875-13.705 4.383-3.99 6.221-10.007 5.038-16.505zm-91.222 57.295c-.056-.178-.097-.355-.119-.53-.086-.664.086-1.243.511-1.721.305-.342.626-.524.92-.524.048 0 .096.005.143.015.257.055.471.263.56.542.143.447-.047.996-.518 1.505-.253.273-.805.537-1.497.713z" fill="#e6e7e8"/><path d="m33.672 46.013c0-9.997 5.308-20.168 13.349-26.305l.127-.555s-8.713-19.011-28.736-11.044c-14.609 5.813-19.944 24.332-10.03 33.361 10.622 9.674 7.382 11.802 8.511 18.723 1.566 9.608 13.571 18.672 20.637-.642-2.452-3.834-3.858-8.403-3.858-13.538z" fill="#fff"/><path d="m33.672 46.013c0-9.64 4.937-19.438 12.499-25.629-2.773-4.521-11.566-15.718-27.758-9.275-14.61 5.813-19.945 24.332-10.031 33.361 10.622 9.674 7.382 11.802 8.511 18.723 1.618 9.923 14.37 19.267 21.316-2.635-2.871-4.031-4.537-8.952-4.537-14.545z" fill="#ffd7e5"/><path d="m105.588 8.109c-17.167-6.83-26.014 6.161-28.19 10.008 9.307 5.852 15.634 16.979 15.634 27.896 0 6.251-2.08 11.664-5.6 15.931 7.142 16.124 18.18 7.434 19.677-1.751 1.128-6.922-2.111-9.05 8.511-18.723 9.912-9.029 4.577-27.548-10.032-33.361z" fill="#fff"/><path d="m105.588 11.109c-14.725-5.859-23.326 2.867-26.851 7.898 8.57 6.043 14.295 16.621 14.295 27.007 0 6.731-2.411 12.491-6.437 16.894 7.082 18.865 18.956 9.838 20.513.287 1.128-6.922-2.111-9.05 8.511-18.723 9.913-9.031 4.578-27.55-10.031-33.363z" fill="#ffd7e5"/><path d="m91.735 91.262c-.376-3.148-1.71-6.538-3.787-9.782.037-5.531-.924-12.065-5.095-15.207 6.234-4.619 10.179-11.646 10.179-20.26 0-15.823-13.288-32.092-29.68-32.092s-29.68 16.269-29.68 32.092c0 8.063 3.455 14.734 9.008 19.344-5.699 2.691-6.762 10.598-6.618 16.886-1.532 2.811-2.665 5.824-3.35 8.905-4.402 1.068-7.676 5.025-7.676 9.756 0 5.55 4.499 10.049 10.049 10.049 1.516 0 2.948-.346 4.237-.947l.279 2.26c.146 1.183.785 2.273 1.713 2.962 1.507 1.119 4.021 2.555 7.099 2.607 2.872.049 5.089-.935 6.486-1.804 1.025-.638 1.65-1.845 1.626-3.181l-.107-5.95c1.815.22 3.68.345 5.582.345 1.915 0 3.778-.101 5.581-.282l-.106 5.887c-.024 1.336.601 2.543 1.626 3.181 1.397.869 3.614 1.852 6.486 1.804 3.078-.052 5.592-1.487 7.099-2.607.928-.689 1.567-1.779 1.713-2.962l.279-2.26c1.289.601 2.721.947 4.237.947 5.55 0 10.049-4.499 10.049-10.049 0-4.571-3.053-8.422-7.229-9.642z" fill="#6dc9f7"/><g fill="#ffd7e5"><path d="m37.702 96.867c-.754-.49-1.65-.781-2.617-.781-2.661 0-4.817 2.157-4.817 4.817s2.157 4.817 4.817 4.817c1.393 0 2.639-.601 3.518-1.547z"/><path d="m88.915 96.086c-.967 0-1.863.291-2.617.781l-.901 7.307c.88.946 2.125 1.547 3.518 1.547 2.661 0 4.817-2.157 4.817-4.817 0-2.662-2.156-4.818-4.817-4.818z"/><path d="m44.644 112.713c-1.309 0-2.369 1.458-2.445 3.293 1.202.701 2.796 1.399 4.666 1.687.149-.451.239-.95.239-1.481 0-1.933-1.101-3.499-2.46-3.499z"/><path d="m50.398 112.713c-1.358 0-2.46 1.566-2.46 3.498 0 .585.11 1.127.289 1.612.063.002.123.011.186.012 1.688.026 3.142-.277 4.344-.689.059-.299.1-.609.1-.935.001-1.932-1.101-3.498-2.459-3.498z"/><path d="m79.303 112.713c1.309 0 2.369 1.458 2.445 3.293-1.202.701-2.796 1.399-4.666 1.687-.149-.451-.239-.95-.239-1.481.001-1.933 1.102-3.499 2.46-3.499z"/><path d="m73.55 112.713c1.358 0 2.46 1.566 2.46 3.498 0 .585-.11 1.127-.289 1.612-.063.002-.123.011-.186.012-1.688.026-3.142-.277-4.344-.689-.059-.299-.1-.609-.1-.935-.001-1.932 1.1-3.498 2.459-3.498z"/><path d="m74.277 53.362c-.776 0-1.404.429-1.404.957 0 .529.629.957 1.404.957.776 0 1.404-.429 1.404-.957s-.628-.957-1.404-.957z"/><ellipse cx="52.548" cy="54.32" rx="1.404" ry=".957"/></g><path d="m121.332 25.701c-1.501-8.249-7.393-15.345-15.374-18.521-16.619-6.611-25.853 4.743-28.882 9.553-3.15-1.844-6.634-3.11-10.361-3.591v-3.193c0-.552-.447-1-1-1s-1 .448-1 1v3.014c-.452-.023-.905-.042-1.363-.042-.454 0-.903.019-1.352.042v-3.014c0-.552-.447-1-1-1s-1 .448-1 1v3.19c-4.523.582-8.686 2.324-12.332 4.849-1.937-3.52-11.282-18.104-29.626-10.809-7.981 3.177-13.873 10.273-15.374 18.522-1.183 6.498.655 12.515 5.04 16.509 7.773 7.08 7.816 9.858 7.875 13.705.02 1.275.042 2.721.322 4.44.889 5.451 5.07 11.273 10.529 11.581.133.008.271.012.412.012 2.79 0 7.264-1.605 10.91-10.259.937 1.257 2.003 2.419 3.164 3.499-5.012 3.38-6 10.867-5.88 16.895-.649 1.223-1.23 2.475-1.728 3.748-.517-.068-1.033-.249-1.488-.551-.222-.147-.433-.323-.628-.52.778-.268 1.441-.647 1.877-1.119.974-1.052 1.323-2.316.958-3.468-.307-.964-1.092-1.69-2.05-1.894-1.057-.225-2.134.191-2.974 1.136-.816.918-1.162 2.062-1 3.308.021.159.051.32.089.48-.433-.019-.865-.082-1.275-.2-1.044-.303-1.653-.885-1.81-1.731-.101-.543-.623-.902-1.165-.801-.544.101-.902.623-.802 1.166.297 1.605 1.44 2.772 3.221 3.288.843.245 1.793.325 2.718.265.465.695 1.063 1.311 1.735 1.756.593.393 1.248.648 1.916.789-.281.86-.53 1.725-.742 2.592-4.54 1.373-7.857 5.592-7.857 10.575 0 6.093 4.956 11.049 11.049 11.049 1.188 0 2.331-.193 3.404-.543l.121.978c.178 1.453.947 2.78 2.108 3.643 1.682 1.249 4.378 2.748 7.679 2.804.074.001.147.002.221.002 3.023 0 5.366-1.058 6.811-1.957 1.324-.825 2.128-2.376 2.098-4.048-.001-.037-.004-.073-.008-.109l-.614-4.774c1.659.181 3.355.297 5.097.297 1.746 0 3.445-.091 5.104-.24l-.62 4.714c-.005.037-.008.075-.009.112-.03 1.672.773 3.224 2.098 4.048 1.445.899 3.787 1.957 6.811 1.957.073 0 .147-.001.221-.002 3.301-.056 5.997-1.555 7.679-2.804 1.161-.863 1.931-2.19 2.108-3.643l.121-.979c1.073.35 2.216.543 3.404.543 6.093 0 11.049-4.957 11.049-11.049 0-4.792-3.072-8.87-7.346-10.397-.464-3.001-1.71-6.187-3.654-9.29.004-5.244-.899-11.337-4.493-14.87.977-.797 1.881-1.661 2.724-2.573 3.443 6.833 7.405 8.175 9.958 8.175.142 0 .279-.004.412-.012 5.459-.307 9.641-6.129 10.529-11.58.28-1.72.303-3.166.322-4.441.059-3.846.102-6.625 7.875-13.705 4.383-3.993 6.221-10.01 5.038-16.507zm-91.222 57.294c-.056-.178-.097-.355-.119-.53-.086-.664.086-1.243.511-1.721.305-.342.626-.524.92-.524.048 0 .096.005.143.015.257.055.471.263.56.542.143.447-.047.996-.518 1.505-.253.273-.805.537-1.497.713zm-3.563-13.056c-3.925-.221-7.813-4.665-8.667-9.906-.257-1.575-.277-2.884-.297-4.149-.064-4.185-.115-7.49-8.527-15.152-3.865-3.52-5.476-8.868-4.42-14.672 1.379-7.576 6.799-14.098 14.146-17.021 3.355-1.335 6.373-1.886 9.072-1.886 11.426 0 17.098 9.884 18.194 12.03-8.199 6.484-13.376 17.021-13.376 26.832 0 5.085 1.342 9.715 3.741 13.666-2.602 6.852-6.051 10.455-9.866 10.258zm8.186 17.825c.24-.047.477-.108.705-.191.118.955.239 1.743.336 2.313-.228-.017-.457-.032-.689-.032-.339 0-.672.021-1.003.051.195-.717.407-1.431.651-2.141zm.352 22.188c-4.989 0-9.049-4.06-9.049-9.049s4.06-9.049 9.049-9.049c.338 0 .671.022.999.06l2.155 17.464c-.983.37-2.044.574-3.154.574zm62.879-9.049c0 4.99-4.06 9.049-9.049 9.049-1.11 0-2.171-.205-3.154-.574l2.152-17.464c.329-.038.662-.061 1.002-.061 4.989.001 9.049 4.06 9.049 9.05zm-9.049-11.049c-.232 0-.461.016-.688.032.173-1.031.421-2.725.581-4.772.784 1.65 1.334 3.284 1.665 4.862-.511-.072-1.028-.122-1.558-.122zm-1.979-8.445c-.716-1.056-1.926-1.752-3.295-1.752-1.699 0-3.157 1.072-3.72 2.592-1.837-.548-3.93-1.539-4.726-3.644-.706-1.869-.388-4.392.941-7.537 2.433-.914 4.683-2.079 6.696-3.488 3.326 3.055 4.132 8.823 4.104 13.829zm-9.478-13.061c.926-1.716 2.087-3.576 3.502-5.589.317-.452.208-1.076-.243-1.394-.452-.317-1.074-.209-1.394.243-5.551 7.899-7.513 13.69-5.997 17.704 1.278 3.385 4.674 4.558 7.118 5.146.288.069.594.007.832-.171s.385-.453.4-.75c.054-1.054.917-1.879 1.965-1.879 1.091 0 1.979.888 1.979 1.979v5.617c0 1.091-.888 1.979-1.979 1.979-.91 0-1.697-.621-1.914-1.511-.124-.505-.612-.832-1.129-.75-5.43.865-10.64-.274-15.479-3.379-.466-.298-1.084-.163-1.382.302s-.163 1.083.302 1.382c5.025 3.224 10.425 4.498 16.065 3.786.666 1.312 2.017 2.17 3.537 2.17.805 0 1.552-.244 2.179-.657l-2.414 19.568c-.11.898-.603 1.751-1.317 2.282-1.445 1.073-3.749 2.363-6.519 2.409-2.686.05-4.69-.874-5.941-1.653-.717-.446-1.156-1.309-1.155-2.261l2.611-19.852c.072-.547-.313-1.05-.86-1.122-.563-.068-1.05.314-1.122.861l-1.732 13.169c-1.725.169-3.513.268-5.37.268-1.837 0-3.622-.128-5.359-.333l-1.63-12.669c-.07-.547-.558-.939-1.12-.864-.548.07-.935.571-.864 1.119l2.499 19.42c.001.953-.438 1.816-1.155 2.263-1.251.779-3.284 1.679-5.941 1.653-2.77-.046-5.073-1.336-6.519-2.409-.715-.53-1.207-1.383-1.317-2.282l-2.668-21.602c-.041-.204-3.78-19.088 4.602-23.973 2.108 1.674 4.5 3.074 7.136 4.157.5.909 1.047 1.857 1.649 2.831.189.306.517.474.852.474.18 0 .361-.048.524-.149.47-.29.615-.906.325-1.376-3.483-5.638-5.244-10.603-5.262-10.652-.183-.52-.75-.796-1.274-.612-.521.183-.795.753-.612 1.274.047.135.799 2.254 2.285 5.296-8.273-4.287-13.479-12.172-13.479-21.798 0-13.659 10.624-28.815 25.328-30.853v3.409c0 .552.447 1 1 1s1-.448 1-1v-3.606c.448-.025.897-.042 1.352-.042.458 0 .912.017 1.363.042v3.605c0 .552.447 1 1 1s1-.448 1-1v-3.408c14.698 2.045 25.316 17.197 25.316 30.851-.001 10.046-5.667 18.194-14.574 22.337zm37.486-27.617c-8.412 7.662-8.463 10.968-8.527 15.152-.02 1.266-.04 2.574-.297 4.15-.854 5.241-4.742 9.684-8.667 9.905-3.339.179-6.396-2.563-8.847-7.822 3.452-4.426 5.425-9.931 5.425-16.103 0-10.555-5.995-21.946-15.296-28.23 2.681-4.407 10.979-14.914 26.483-8.746 7.348 2.923 12.768 9.445 14.146 17.021 1.056 5.805-.554 11.153-4.42 14.673z" fill="#3a2c60"/><circle cx="54.019" cy="46.013" fill="#3a2c60" r="2.375"/><path d="m72.684 43.638c-1.312 0-2.375 1.063-2.375 2.375s1.063 2.375 2.375 2.375 2.375-1.063 2.375-2.375-1.063-2.375-2.375-2.375z" fill="#3a2c60"/><path d="m55.831 76.644c-.331-.441-.957-.529-1.4-.198-.44.332-.529.959-.197 1.4 1.729 2.3 3.564 4.34 5.453 6.062.191.175.433.261.674.261.271 0 .542-.11.739-.326.372-.408.343-1.041-.065-1.413-1.798-1.638-3.548-3.585-5.204-5.786z" fill="#3a2c60"/></symbol><symbol id="gulp" viewBox="0 0 256 566" preserveAspectRatio="xMidYMid"><path d="M197.28,548.749 L202.707,458.319 L217.692,432.739 C217.692,432.739 183.586,446.691 126.487,446.691 C69.387,446.691 35.798,432.997 35.798,432.997 L52.592,460.901 L58.533,548.749 C58.533,558.167 89.592,565.801 127.907,565.801 C166.22,565.801 197.28,558.167 197.28,548.749"/><path d="M180.161,126.454 L191.552,81.429 L254.633,15.053 L238.007,0.892 L171.223,71.599 L157.997,125.392 C148.414,125.068 138.413,124.895 128.124,124.895 C57.788,124.895 0.769,132.911 0.769,142.797 C0.769,152.684 57.788,160.699 128.124,160.699 C198.459,160.699 255.477,152.684 255.477,142.797 C255.477,135.517 224.553,129.251 180.161,126.454"/><path d="M173.535,151.669 C173.535,151.669 171.068,152.222 163.811,152.253 C156.552,152.283 151.398,152.206 149.345,150.336 C148.793,149.834 148.491,148.837 148.494,148.162 C148.5,146.877 149.412,146.12 150.574,145.646 L151.673,147.37 C151.195,147.535 150.922,147.73 150.921,147.938 C150.917,148.914 158.343,149.582 164.023,149.51 C169.704,149.44 176.568,148.972 176.574,148.01 C176.574,147.719 176.055,147.445 175.152,147.229 L176.246,145.517 C177.718,145.974 179.003,146.857 179,148.385 C178.986,150.983 175.68,151.378 173.535,151.669" fill="#FFF"/><path d="M254.509,15.184 C256.095,13.352 253.688,8.666 249.133,4.719 C244.576,0.774 239.596,-0.94 238.007,0.892 C236.42,2.724 238.828,7.41 243.385,11.355 C247.94,15.301 252.922,17.017 254.509,15.184"/><path d="M194.246,327.865 C192.751,313.481 225.708,292.649 217.25,291.982 C199.042,293.023 189.98,313.32 180.819,334.578 C177.462,342.369 165.975,375.591 158.441,371.501 C150.909,367.413 168.206,340.094 173.054,323.87 C167.46,327.972 146.945,343.911 141.658,328.984 C133.158,336.203 114.995,340.114 117.044,321.151 C112.522,329.161 102.373,340.344 90.191,335.697 C74.193,329.596 99.461,278.635 105.744,281.206 C112.028,283.776 104.476,295.385 102.498,299.893 C98.148,309.814 93.123,322.286 96.48,324.839 C102.231,329.213 117.881,308.292 118.229,307.832 C121.156,303.965 129.495,278.666 136.216,281.571 C142.937,284.476 119.452,317.879 128.233,324.508 C130.004,325.846 137.25,323.683 141.658,318.914 C144.51,315.829 143.529,308.996 153.036,286.324 C162.543,263.653 171.016,235.419 177.536,237.57 C184.056,239.72 178.682,254.211 176.343,259.613 C165.367,284.967 146.387,326.854 155.338,323.683 C164.289,320.513 168.95,320.327 177.715,310.07 C186.48,299.813 186.076,282.918 191.918,283.277 C197.762,283.637 196.781,289.054 195.364,293.179 C201.114,286.599 222.62,272.741 227.812,286.466 C233.962,302.715 197.043,326.186 206.248,324.989 C215.223,323.822 229.763,314.613 235.971,306.24 L253.059,152.614 C253.059,152.614 235.864,166.844 126.47,166.844 C17.075,166.844 1.659,152.91 1.659,152.91 L16.207,293.134 C23.929,271.187 42.266,226.795 71.17,228.285 C84.318,228.963 101.87,254.28 86.835,255.138 C80.471,255.5 79.825,242.501 72.289,240.592 C66.851,239.214 59.28,243.635 54.387,248.425 C44.629,257.975 23.642,295.654 26.415,314.439 C29.948,338.388 59.463,306.117 64.457,296.536 C67.974,289.787 70.35,269.791 78.042,271.889 C85.735,273.987 77.371,294.623 71.795,312.868 C65.531,333.355 62.238,354.966 54.387,352.48 C46.535,349.996 59.325,323.548 58.862,318.914 C51.482,325.723 37.886,342.961 20.492,334.429 L29.527,421.507 C29.527,421.507 53.54,440.48 125.877,440.48 C198.214,440.48 223.116,421.803 223.116,421.803 L234.335,320.946 C225.156,329.884 196.106,345.756 194.246,327.865"/></symbol><symbol id="home" viewBox="0 0 460.298 460.297"><path d="M230.149,120.939L65.986,256.274c0,0.191-0.048,0.472-0.144,0.855c-0.094,0.38-0.144,0.656-0.144,0.852v137.041 c0,4.948,1.809,9.236,5.426,12.847c3.616,3.613,7.898,5.431,12.847,5.431h109.63V303.664h73.097v109.64h109.629 c4.948,0,9.236-1.814,12.847-5.435c3.617-3.607,5.432-7.898,5.432-12.847V257.981c0-0.76-0.104-1.334-0.288-1.707L230.149,120.939 z"/><path d="M457.122,225.438L394.6,173.476V56.989c0-2.663-0.856-4.853-2.574-6.567c-1.704-1.712-3.894-2.568-6.563-2.568h-54.816 c-2.666,0-4.855,0.856-6.57,2.568c-1.711,1.714-2.566,3.905-2.566,6.567v55.673l-69.662-58.245 c-6.084-4.949-13.318-7.423-21.694-7.423c-8.375,0-15.608,2.474-21.698,7.423L3.172,225.438c-1.903,1.52-2.946,3.566-3.14,6.136 c-0.193,2.568,0.472,4.811,1.997,6.713l17.701,21.128c1.525,1.712,3.521,2.759,5.996,3.142c2.285,0.192,4.57-0.476,6.855-1.998 L230.149,95.817l197.57,164.741c1.526,1.328,3.521,1.991,5.996,1.991h0.858c2.471-0.376,4.463-1.43,5.996-3.138l17.703-21.125 c1.522-1.906,2.189-4.145,1.991-6.716C460.068,229.007,459.021,226.961,457.122,225.438z"/></symbol><symbol id="list" viewBox="0 0 511.626 511.627" preserveAspectRatio="xMidYMid"><path d="M118.771,200.999H27.406c-7.611,0-14.084,2.664-19.414,7.994C2.663,214.32,0,220.791,0,228.407v54.823 c0,7.61,2.663,14.078,7.992,19.406c5.33,5.329,11.803,7.994,19.414,7.994h91.365c7.611,0,14.084-2.665,19.414-7.994 c5.33-5.328,7.992-11.796,7.992-19.406v-54.823c0-7.616-2.662-14.087-7.992-19.414S126.382,200.999,118.771,200.999z"/><path d="M118.771,54.814H27.406c-7.611,0-14.084,2.663-19.414,7.993C2.663,68.137,0,74.61,0,82.221v54.821 c0,7.616,2.663,14.091,7.992,19.417c5.33,5.327,11.803,7.994,19.414,7.994h91.365c7.611,0,14.084-2.667,19.414-7.994 s7.992-11.798,7.992-19.414V82.225c0-7.611-2.662-14.084-7.992-19.417C132.855,57.48,126.382,54.814,118.771,54.814z"/><path d="M118.771,347.177H27.406c-7.611,0-14.084,2.662-19.414,7.994C2.663,360.502,0,366.974,0,374.585v54.826 c0,7.61,2.663,14.086,7.992,19.41c5.33,5.332,11.803,7.991,19.414,7.991h91.365c7.611,0,14.084-2.663,19.414-7.991 c5.33-5.324,7.992-11.8,7.992-19.41v-54.826c0-7.611-2.662-14.083-7.992-19.411S126.382,347.177,118.771,347.177z"/><path d="M484.215,200.999H210.131c-7.614,0-14.084,2.664-19.414,7.994s-7.992,11.798-7.992,19.414v54.823 c0,7.61,2.662,14.078,7.992,19.406c5.327,5.329,11.8,7.994,19.414,7.994h274.091c7.61,0,14.085-2.665,19.41-7.994 c5.332-5.328,7.994-11.796,7.994-19.406v-54.823c0-7.616-2.662-14.087-7.997-19.414 C498.3,203.663,491.833,200.999,484.215,200.999z"/><path d="M484.215,347.177H210.131c-7.614,0-14.084,2.662-19.414,7.994c-5.33,5.331-7.992,11.8-7.992,19.41v54.823 c0,7.611,2.662,14.089,7.992,19.417c5.327,5.328,11.8,7.987,19.414,7.987h274.091c7.61,0,14.085-2.662,19.41-7.987 c5.332-5.331,7.994-11.806,7.994-19.417v-54.823c0-7.61-2.662-14.085-7.997-19.41C498.3,349.846,491.833,347.177,484.215,347.177z"/><path d="M503.629,62.811c-5.329-5.327-11.797-7.993-19.414-7.993H210.131c-7.614,0-14.084,2.663-19.414,7.993 s-7.992,11.803-7.992,19.414v54.821c0,7.616,2.662,14.083,7.992,19.414c5.327,5.327,11.8,7.994,19.414,7.994h274.091 c7.61,0,14.078-2.667,19.41-7.994s7.994-11.798,7.994-19.414V82.225C511.626,74.613,508.964,68.141,503.629,62.811z"/></symbol><symbol id="puzzle" viewBox="0 0 475.078 475.077"><path d="M462.094,285.791c-8.658-11.231-20.793-16.851-36.398-16.851c-8.186,0-16.084,1.43-23.694,4.284 c-7.625,2.854-13.765,6.044-18.426,9.564c-4.653,3.519-9.705,6.711-15.125,9.565c-5.421,2.854-10.232,4.288-14.414,4.288 c-8.569,0-17.036-4.381-25.413-13.135c-6.663-7.046-9.993-18.175-9.993-33.403c0-18.083,2.279-41.399,6.845-69.949 c0.198-0.571,0.526-2.618,0.999-6.139c0.486-3.518,0.951-6.757,1.431-9.707c0.472-2.95,0.801-4.615,0.992-4.998v-0.57 c-8.938,0.382-24.455,1.997-46.534,4.853c-22.08,2.856-39.205,4.283-51.391,4.283c-11.61,0-21.414-2.521-29.408-7.566 c-7.993-5.043-11.991-12.991-11.991-23.839c0-7.045,1.668-13.8,4.996-20.273c3.33-6.473,6.947-11.851,10.85-16.134 c3.905-4.286,7.521-9.9,10.85-16.846c3.332-6.942,4.996-14.322,4.996-22.123c0-15.037-5.136-26.794-15.415-35.26 c-10.278-8.466-23.029-12.703-38.256-12.703c-16.18,0-29.88,4.332-41.112,12.99c-11.228,8.66-16.845,20.795-16.845,36.403 c0,8.182,1.427,16.081,4.283,23.695c2.853,7.613,6.04,13.752,9.563,18.417c3.521,4.665,6.71,9.707,9.563,15.131 c2.856,5.428,4.281,10.232,4.281,14.419c0,8.566-4.377,17.036-13.134,25.41c-7.043,6.663-18.175,10-33.402,10 c-18.083,0-41.399-2.286-69.949-6.854c-0.568-0.2-2.615-0.534-6.136-1.01c-3.523-0.477-6.757-0.95-9.707-1.427 c-2.952-0.476-4.62-0.806-4.998-0.999V451.67c0,0.191,0.19,0.287,0.571,0.287c0.378,0.188,0.666,0.28,0.855,0.28l3.711,0.575 c1.716,0.373,4.331,0.76,7.852,1.137c3.523,0.38,6.14,0.767,7.854,1.14c28.549,4.571,51.866,6.854,69.949,6.854 c15.227,0,26.359-3.334,33.402-10c8.757-8.374,13.134-16.847,13.134-25.406c0-4.185-1.425-8.99-4.281-14.421 c-2.853-5.421-6.045-10.461-9.563-15.126c-3.518-4.664-6.707-10.804-9.563-18.415c-2.856-7.613-4.283-15.512-4.283-23.698 c0-15.608,5.617-27.747,16.846-36.404c11.228-8.662,24.838-12.991,40.824-12.991c15.419,0,28.266,4.237,38.544,12.703 c10.278,8.467,15.415,20.226,15.415,35.262c0,7.8-1.665,15.182-4.996,22.121c-3.33,6.951-6.951,12.56-10.85,16.851 c-3.903,4.285-7.517,9.657-10.85,16.133c-3.331,6.468-4.996,13.227-4.996,20.266c0,10.855,3.995,18.802,11.991,23.846 c7.998,5.041,17.799,7.56,29.408,7.56c8.758,0,18.083-0.473,27.979-1.427c9.897-0.948,20.889-2.235,32.977-3.854 c12.087-1.619,21.36-2.718,27.832-3.285c2.098-0.195,5.239-0.288,9.421-0.288v-1.423c0.192-7.423-1.235-18.367-4.277-32.836 c-3.046-14.462-4.575-25.406-4.575-32.832c0-23.603,10.468-35.402,31.408-35.402c7.046,0,13.802,1.666,20.273,4.996 c6.471,3.333,11.847,6.954,16.128,10.852c4.288,3.905,9.911,7.519,16.854,10.852c6.943,3.327,14.314,4.997,22.117,4.997 c15.037,0,26.796-5.141,35.262-15.417c8.474-10.284,12.703-23.124,12.703-38.541C475.078,310.622,470.752,297.022,462.094,285.791z"/></symbol><symbol id="test" viewBox="0 0 350.7 195.39"><style>.st0{fill:#fff;stroke:#000;stroke-miterlimit:10}</style><path fill="#8a2be2" class="st0" d="M73.83 49.53H138.32V114.02H73.83z"/><ellipse class="st0" cx="141.9" cy="91.43" rx="43.15" ry="35.36"/><text transform="translate(176.324 49.533)" font-size="18" font-family="MyriadPro-Regular" stroke="#c13434" stroke-miterlimit="10">SVG</text></symbol></svg>