<svg xmlns="http://www.w3.org/2000/svg" width="512" height="512"><path fill="#6aa9ff" d="M512 141.17v229.66c0 39.96-32.51 72.47-72.46 72.47H72.46C32.51 443.3 0 410.79 0 370.83V141.17C0 101.21 32.51 68.7 72.46 68.7h367.08c39.95 0 72.46 32.51 72.46 72.47z"/><path fill="#4987ea" d="M512 141.17v229.66c0 39.96-32.51 72.47-72.46 72.47H256V68.7h183.54c39.95 0 72.46 32.51 72.46 72.47z"/><path fill="#f0f7ff" d="M146.16 349.223l-78.4-78.4c-5.858-5.858-5.858-15.355 0-21.213l86.833-86.833c5.857-5.858 15.355-5.858 21.213 0s5.858 15.355 0 21.213L99.58 260.216l67.793 67.794c5.858 5.858 5.858 15.355 0 21.213-5.857 5.858-15.355 5.859-21.213 0z"/><path fill="#dfe7f4" d="M336.194 349.223c-5.858-5.858-5.858-15.355 0-21.213l76.226-76.227-67.793-67.794c-5.858-5.858-5.858-15.355 0-21.213 5.857-5.858 15.355-5.858 21.213 0l78.4 78.4c5.858 5.858 5.858 15.355 0 21.213l-86.833 86.833c-5.856 5.859-15.355 5.86-21.213.001z"/><path fill="#f0f7ff" d="M309.54 148.7L256 300.3l-25.78 72.99c-2.792 7.888-11.443 11.903-19.14 9.15-7.81-2.76-11.91-11.33-9.15-19.14L256 210.2l25.25-71.49c2.76-7.81 11.33-11.91 19.14-9.15s11.91 11.33 9.15 19.14z"/><path fill="#dfe7f4" d="M309.54 148.7L256 300.3v-90.1l25.25-71.49c2.76-7.81 11.33-11.91 19.14-9.15s11.91 11.33 9.15 19.14z"/></svg>