<svg xmlns="http://www.w3.org/2000/svg" xmlns:xlink="http://www.w3.org/1999/xlink"><symbol id="gender" viewBox="0 0 509.606 509.606">
  <path d="M104.158 384.235 0 488.393 10.606 499l61.667-41.667 41.356-61.355 4.577-16.578z" fill="#e7374e"/>
  <path d="m10.606 499 10.607 10.606L124.43 406.389l5.111-15.654-15.912 5.243z" fill="#b02439"/>
  <path d="M21.213 413.393 0 434.606l37.5 37.5 19.773.227 1.44-21.44z" fill="#ff617d"/>
  <path d="m37.446 472.062 21.21-21.21 37.494 37.495-21.21 21.21z" fill="#e7374e"/>
  <path d="M112.106 315c0-49.627 40.374-90 90-90 22.909 0 43.842 8.608 59.746 22.754l21.421-1.421-.188-19.812C261.724 206.957 233.287 195 202.106 195c-66.168 0-120 53.831-120 120 0 31.18 11.957 59.617 31.522 80.978l20.577-.577.655-20.655c-14.145-15.905-22.754-36.838-22.754-59.746z" fill="#ff617d"/>
  <path d="m458.394 29.999-82.05 82.051-4.715 14.173 16.456-4.701L479.606 30l-2.25-9.5z" fill="#4bb9ec"/>
  <path d="m381.882 136.475 16.615-4.152 81.11-81.11L490.356 30h-10.75l-91.521 91.522z" fill="#4b7eec"/>
  <path d="M217.106 210c0-49.627 40.374-90 90-90 22.909 0 43.842 8.608 59.746 22.754l19.831.169 1.401-21.401C366.724 101.957 338.287 90 307.106 90c-66.167 0-120 53.831-120 120 0 31.18 11.957 59.617 31.523 80.978l19.477-.478 1.754-20.755c-14.145-15.904-22.754-36.837-22.754-59.745zM409.754 30h69.852l25-5 5-25h-99.852z" fill="#76e2f8"/>
  <path d="M479.606 99.853h30V0l-30 30zm-91.521 21.669-21.232 21.232c18.548 16.498 30.254 40.528 30.254 67.246 0 49.626-40.373 90-90 90-26.717 0-50.747-11.707-67.245-30.255l-21.232 21.232C240.584 314.945 272.119 330 307.106 330c66.168 0 120-53.832 120-120 0-34.988-15.054-66.523-39.021-88.478z" fill="#4bb9ec"/>
  <path d="m283.085 226.522-21.232 21.232c18.548 16.498 30.254 40.528 30.254 67.246 0 49.626-40.374 90-90 90-26.717 0-50.748-11.707-67.246-30.255l-21.232 21.232C135.584 419.945 167.119 435 202.106 435c66.168 0 120-53.832 120-120 0-34.988-15.054-66.523-39.021-88.478z" fill="#e7374e"/>
</symbol></svg>