<svg xmlns="http://www.w3.org/2000/svg" xmlns:xlink="http://www.w3.org/1999/xlink"><defs>
    <clipPath id="a">
      <path fill="#fff" d="M0 0h60.047v49.949H0z"/>
    </clipPath>
  
    <clipPath id="a">
      <path fill="#fff" d="M0 0h11.164v15H0z"/>
    </clipPath>
  
    <clipPath id="a">
      <path fill="#fff" d="M0 0h8.026v14.312H0z" transform="rotate(90 7.156 7.156)"/>
    </clipPath>
  </defs><symbol id="angle"><g fill="none">
  <path stroke="#fff" d="M.5 0v10M0 .5h10"/>
</g></symbol><symbol id="bars" viewBox="0 0 448 512">
  <path fill="currentColor" d="M0 96c0-17.7 14.3-32 32-32h384c17.7 0 32 14.3 32 32s-14.3 32-32 32H32c-17.7 0-32-14.3-32-32zm0 160c0-17.7 14.3-32 32-32h384c17.7 0 32 14.3 32 32s-14.3 32-32 32H32c-17.7 0-32-14.3-32-32zm448 160c0 17.7-14.3 32-32 32H32c-17.7 0-32-14.3-32-32s14.3-32 32-32h384c17.7 0 32 14.3 32 32z"/>
</symbol><symbol id="burger">
  <path class="line line1" d="M20 29h60s14.499-.183 14.533 37.711c.01 11.27-3.567 14.96-9.274 14.958C79.552 81.668 75 74.999 75 74.999L25 25"/>
  <path class="line line2" d="M20 50h60"/>
  <path class="line line3" d="M20 71h60s14.499.183 14.533-37.711c.01-11.27-3.567-14.96-9.274-14.958-5.707.001-10.259 6.67-10.259 6.67L25 75"/>
</symbol><symbol id="circle">
  <circle fill="currentColor" cx="2.5" cy="2.5" r="2.5"/>
</symbol><symbol id="eco"><g fill="none">
  <g clip-path="url(#a)" transform="translate(-.321 -5.236)">
    <path d="M47.771 35.54c-1.729.26-3.49.215-5.203-.137l-.592-.13.883-1.553a51.154 51.154 0 0 0 3.673-7.726 42.73 42.73 0 0 0 2.224-7.91 31.87 31.87 0 0 0 .508-3.855c-.019.008-.144.54-.277 1.183-1.436 6.857-4.636 13.9-8.275 18.227a3.554 3.554 0 0 1-.715.732 20.805 20.805 0 0 1-2.359-3.145 16.014 16.014 0 0 1-1.686-4.057 8.459 8.459 0 0 1 1.39-6.729 19.781 19.781 0 0 1 4.231-4.568c4.042-3.467 4.682-4.11 5.767-5.782A11.498 11.498 0 0 0 48.923 6c.031-.26.085-.515.162-.764.54.7 1.01 1.45 1.405 2.242a30.663 30.663 0 0 1 1.882 4.335c3.027 8.748 3.013 16.993-.037 20.918a7.574 7.574 0 0 1-1.833 1.711c-.85.5-1.771.87-2.73 1.098zm-16.96 6.733c-4.957 1.476-9.49.35-13.66-3.395a18.077 18.077 0 0 1-3.247-3.712 33.219 33.219 0 0 1-2.821-5.494 24.741 24.741 0 0 0-2.527-4.863c-1.698-2.34-3.927-3.713-7.362-4.52a5.96 5.96 0 0 1-.873-.245 7.318 7.318 0 0 1 1.313-1.07 21.984 21.984 0 0 1 6.107-2.679 36.607 36.607 0 0 1 18.392.098 24.787 24.787 0 0 1 8.428 3.951l.527.408-.302.668a8.386 8.386 0 0 0-.411 6.723 14.582 14.582 0 0 0 2.4 4.15c.19.22.365.452.525.695a2.218 2.218 0 0 1-.422-.33 39.72 39.72 0 0 0-16.096-8.955c-.967-.256-2.318-.56-2.374-.537-.019.007.652.333 1.49.722a51.999 51.999 0 0 1 10.555 6.386 42.77 42.77 0 0 1 3.944 3.659 19.527 19.527 0 0 1 2.899 4.034l.202.457-.533.453a19.573 19.573 0 0 1-6.155 3.395zm6.641-9.076c-.042-.033-.068-.08-.057-.107.011-.026.057-.004.104.048.098.108.067.147-.046.059z" fill="#ff8900"/>
  </g>
  
</g></symbol><symbol id="facebook" viewBox="0 0 512 512">
  <path fill="#fff" d="M504 256C504 119 393 8 256 8S8 119 8 256c0 123.78 90.69 226.38 209.25 245V327.69h-63V256h63v-54.64c0-62.15 37-96.48 93.67-96.48 27.14 0 55.52 4.84 55.52 4.84v61h-31.28c-30.8 0-40.41 19.12-40.41 38.73V256h68.78l-11 71.69h-57.78V501C413.31 482.38 504 379.78 504 256z"/>
</symbol><symbol id="gender" viewBox="0 0 509.606 509.606">
  <path d="M104.158 384.235 0 488.393 10.606 499l61.667-41.667 41.356-61.355 4.577-16.578z" fill="#e7374e"/>
  <path d="m10.606 499 10.607 10.606L124.43 406.389l5.111-15.654-15.912 5.243z" fill="#b02439"/>
  <path d="M21.213 413.393 0 434.606l37.5 37.5 19.773.227 1.44-21.44z" fill="#ff617d"/>
  <path d="m37.446 472.062 21.21-21.21 37.494 37.495-21.21 21.21z" fill="#e7374e"/>
  <path d="M112.106 315c0-49.627 40.374-90 90-90 22.909 0 43.842 8.608 59.746 22.754l21.421-1.421-.188-19.812C261.724 206.957 233.287 195 202.106 195c-66.168 0-120 53.831-120 120 0 31.18 11.957 59.617 31.522 80.978l20.577-.577.655-20.655c-14.145-15.905-22.754-36.838-22.754-59.746z" fill="#ff617d"/>
  <path d="m458.394 29.999-82.05 82.051-4.715 14.173 16.456-4.701L479.606 30l-2.25-9.5z" fill="#4bb9ec"/>
  <path d="m381.882 136.475 16.615-4.152 81.11-81.11L490.356 30h-10.75l-91.521 91.522z" fill="#4b7eec"/>
  <path d="M217.106 210c0-49.627 40.374-90 90-90 22.909 0 43.842 8.608 59.746 22.754l19.831.169 1.401-21.401C366.724 101.957 338.287 90 307.106 90c-66.167 0-120 53.831-120 120 0 31.18 11.957 59.617 31.523 80.978l19.477-.478 1.754-20.755c-14.145-15.904-22.754-36.837-22.754-59.745zM409.754 30h69.852l25-5 5-25h-99.852z" fill="#76e2f8"/>
  <path d="M479.606 99.853h30V0l-30 30zm-91.521 21.669-21.232 21.232c18.548 16.498 30.254 40.528 30.254 67.246 0 49.626-40.373 90-90 90-26.717 0-50.747-11.707-67.245-30.255l-21.232 21.232C240.584 314.945 272.119 330 307.106 330c66.168 0 120-53.832 120-120 0-34.988-15.054-66.523-39.021-88.478z" fill="#4bb9ec"/>
  <path d="m283.085 226.522-21.232 21.232c18.548 16.498 30.254 40.528 30.254 67.246 0 49.626-40.374 90-90 90-26.717 0-50.748-11.707-67.246-30.255l-21.232 21.232C135.584 419.945 167.119 435 202.106 435c66.168 0 120-53.832 120-120 0-34.988-15.054-66.523-39.021-88.478z" fill="#e7374e"/>
</symbol><symbol id="hamburger">
  <path d="M2 5v2h20V5H2zm0 6v2h20v-2H2zm0 6v2h20v-2H2z"/>
</symbol><symbol id="instagram" viewBox="0 0 448 512">
  <path fill="#fff" d="M224.1 141c-63.6 0-114.9 51.3-114.9 114.9s51.3 114.9 114.9 114.9S339 319.5 339 255.9 287.7 141 224.1 141zm0 189.6c-41.1 0-74.7-33.5-74.7-74.7s33.5-74.7 74.7-74.7 74.7 33.5 74.7 74.7-33.6 74.7-74.7 74.7zm146.4-194.3c0 14.9-12 26.8-26.8 26.8-14.9 0-26.8-12-26.8-26.8s12-26.8 26.8-26.8 26.8 12 26.8 26.8zm76.1 27.2c-1.7-35.9-9.9-67.7-36.2-93.9-26.2-26.2-58-34.4-93.9-36.2-37-2.1-147.9-2.1-184.9 0-35.8 1.7-67.6 9.9-93.9 36.1s-34.4 58-36.2 93.9c-2.1 37-2.1 147.9 0 184.9 1.7 35.9 9.9 67.7 36.2 93.9s58 34.4 93.9 36.2c37 2.1 147.9 2.1 184.9 0 35.9-1.7 67.7-9.9 93.9-36.2 26.2-26.2 34.4-58 36.2-93.9 2.1-37 2.1-147.8 0-184.8zM398.8 388c-7.8 19.6-22.9 34.7-42.6 42.6-29.5 11.7-99.5 9-132.1 9s-102.7 2.6-132.1-9c-19.6-7.8-34.7-22.9-42.6-42.6-11.7-29.5-9-99.5-9-132.1s-2.6-102.7 9-132.1c7.8-19.6 22.9-34.7 42.6-42.6 29.5-11.7 99.5-9 132.1-9s102.7-2.6 132.1 9c19.6 7.8 34.7 22.9 42.6 42.6 11.7 29.5 9 99.5 9 132.1s2.7 102.7-9 132.1z"/>
</symbol><symbol id="mapmarker"><g fill="none">
  <g clip-path="url(#a)">
    <path d="M5.582 2A3.586 3.586 0 0 0 2 5.582c0 .167.08 1.125 1.665 3.537a41.678 41.678 0 0 0 1.967 2.71c.42-.543.89-1.177 1.351-1.85 2.12-3.092 2.18-4.273 2.18-4.397A3.586 3.586 0 0 0 5.583 2zm0-2c3.083 0 5.582 2.5 5.582 5.582C11.164 8.63 5.676 15 5.583 15l-.001-.002C5.612 14.853 0 8.665 0 5.582S2.5 0 5.582 0z" fill="#F88500"/>
  </g>
  
</g></symbol><symbol id="twitter" viewBox="0 0 512 512">
  <path fill="#fff" d="M459.37 151.716c.325 4.548.325 9.097.325 13.645 0 138.72-105.583 298.558-298.558 298.558-59.452 0-114.68-17.219-161.137-47.106 8.447.974 16.568 1.299 25.34 1.299 49.055 0 94.213-16.568 130.274-44.832-46.132-.975-84.792-31.188-98.112-72.772 6.498.974 12.995 1.624 19.818 1.624 9.421 0 18.843-1.3 27.614-3.573-48.081-9.747-84.143-51.98-84.143-102.985v-1.299c13.969 7.797 30.214 12.67 47.431 13.319-28.264-18.843-46.781-51.005-46.781-87.391 0-19.492 5.197-37.36 14.294-52.954 51.655 63.675 129.3 105.258 216.365 109.807-1.624-7.797-2.599-15.918-2.599-24.04 0-57.828 46.782-104.934 104.934-104.934 30.213 0 57.502 12.67 76.67 33.137 23.715-4.548 46.456-13.32 66.599-25.34-7.798 24.366-24.366 44.833-46.132 57.827 21.117-2.273 41.584-8.122 60.426-16.243-14.292 20.791-32.161 39.308-52.628 54.253z"/>
</symbol><symbol id="up-arrow"><g fill="none">
  <g fill="#fff" clip-path="url(#a)">
    <path d="m.477 6.829 6.29-6.44a.547.547 0 0 1 .786 0 .578.578 0 0 1 0 .806l-6.29 6.439a.547.547 0 0 1-.786 0 .578.578 0 0 1 0-.805Z"/>
    <path d="M13.05 7.633 6.76 1.194a.578.578 0 0 1 .18-.928.547.547 0 0 1 .607.124l6.29 6.439a.578.578 0 0 1-.182.927.547.547 0 0 1-.605-.123Z"/>
  </g>
  
</g></symbol><symbol id="vk" viewBox="0 0 576 512">
  <path fill="#fff" d="M545 117.7c3.7-12.5 0-21.7-17.8-21.7h-58.9c-15 0-21.9 7.9-25.6 16.7 0 0-30 73.1-72.4 120.5-13.7 13.7-20 18.1-27.5 18.1-3.7 0-9.4-4.4-9.4-16.9V117.7c0-15-4.2-21.7-16.6-21.7h-92.6c-9.4 0-15 7-15 13.5 0 14.2 21.2 17.5 23.4 57.5v86.8c0 19-3.4 22.5-10.9 22.5-20 0-68.6-73.4-97.4-157.4-5.8-16.3-11.5-22.9-26.6-22.9H38.8c-16.8 0-20.2 7.9-20.2 16.7 0 15.6 20 93.1 93.1 195.5C160.4 378.1 229 416 291.4 416c37.5 0 42.1-8.4 42.1-22.9 0-66.8-3.4-73.1 15.4-73.1 8.7 0 23.7 4.4 58.7 38.1 40 40 46.6 57.9 69 57.9h58.9c16.8 0 25.3-8.4 20.4-25-11.2-34.9-86.9-106.7-90.3-111.5-8.7-11.2-6.2-16.2 0-26.2.1-.1 72-101.3 79.4-135.6z"/>
</symbol><symbol id="wood"><g fill="none">
  <path d="M19.5 0c-3.78 0-7.445 1.083-10.602 3.131a.744.744 0 0 0 .81 1.249A17.943 17.943 0 0 1 19.5 1.489c9.931 0 18.011 8.08 18.011 18.011S29.431 37.511 19.5 37.511c-9.932 0-18.011-8.08-18.011-18.011 0-5.064 2.15-9.924 5.9-13.332a.744.744 0 0 0-1-1.102A19.545 19.545 0 0 0 0 19.5C0 30.252 8.748 39 19.5 39S39 30.252 39 19.5 30.252 0 19.5 0z" fill="#F88500"/>
  <path d="M32.748 10.655a.744.744 0 1 0-1.237.827 14.37 14.37 0 0 1 2.428 8.018c0 7.962-6.477 14.439-14.439 14.439-7.961 0-14.439-6.477-14.439-14.439S11.54 5.061 19.501 5.061c3.797 0 7.383 1.463 10.098 4.119a.744.744 0 1 0 1.04-1.064A15.839 15.839 0 0 0 19.5 3.573c-8.782 0-15.927 7.144-15.927 15.927 0 8.782 7.145 15.927 15.927 15.927 8.783 0 15.928-7.145 15.928-15.927 0-3.166-.927-6.225-2.68-8.845z" fill="#F88500"/>
  <path d="M19.5 8.137c-2.453 0-4.788.77-6.754 2.225a.744.744 0 1 0 .885 1.196A9.794 9.794 0 0 1 19.5 9.626c5.445 0 9.874 4.43 9.874 9.874a9.856 9.856 0 0 1-7.472 9.58.744.744 0 0 0 .361 1.444 11.342 11.342 0 0 0 8.6-11.024c0-6.265-5.098-11.363-11.363-11.363zm-6.246 19.011A9.844 9.844 0 0 1 9.626 19.5c0-2.059.627-4.031 1.814-5.704a.744.744 0 1 0-1.215-.861A11.287 11.287 0 0 0 8.138 19.5c0 3.423 1.521 6.63 4.174 8.8a.742.742 0 0 0 1.047-.105.744.744 0 0 0-.105-1.047z" fill="#F88500"/>
  <path d="M25.95 18.756a.744.744 0 0 0-.744.744 5.712 5.712 0 0 1-5.706 5.706 5.713 5.713 0 0 1-5.706-5.706 5.713 5.713 0 0 1 5.706-5.706.744.744 0 1 0 0-1.489c-3.967 0-7.195 3.228-7.195 7.195s3.228 7.195 7.195 7.195 7.195-3.228 7.195-7.195a.744.744 0 0 0-.745-.744z" fill="#F88500"/>
  <path d="M19.5 16.473a3.03 3.03 0 0 0-3.027 3.027 3.03 3.03 0 0 0 3.027 3.027 3.03 3.03 0 0 0 3.026-3.027 3.03 3.03 0 0 0-3.026-3.027zm0 4.565a1.54 1.54 0 0 1-1.538-1.538c0-.848.69-1.538 1.538-1.538.848 0 1.538.69 1.538 1.538a1.54 1.54 0 0 1-1.538 1.538z" fill="#F88500"/>
</g></symbol><symbol id="x">
  <path d="M261.224 10.662 250.562 0l-119.95 119.95L10.662 0 0 10.662l119.95 119.95L0 250.562l10.662 10.662 119.95-119.95 119.95 119.95 10.662-10.662-119.95-119.95z" fill="#fff"/>
</symbol></svg>