<svg id="Layer_1" enable-background="new 0 0 509.606 509.606" height="512" viewBox="0 0 509.606 509.606" width="512" xmlns="http://www.w3.org/2000/svg"><g><g><path d="m104.158 384.235-104.158 104.158 10.606 10.607 61.667-41.667 41.356-61.355 4.577-16.578z" fill="#e7374e"/><path d="m10.606 499 10.607 10.606 103.217-103.217 5.111-15.654-15.912 5.243z" fill="#b02439"/></g><path d="m21.213 413.393-21.213 21.213 37.5 37.5 19.773.227 1.44-21.44z" fill="#ff617d"/><path d="m51.857 453.733h30v53.033h-30z" fill="#e7374e" transform="matrix(.707 -.707 .707 .707 -320.006 187.936)"/><path d="m112.106 315c0-49.627 40.374-90 90-90 22.909 0 43.842 8.608 59.746 22.754l21.421-1.421-.188-19.812c-21.361-19.564-49.798-31.521-80.979-31.521-66.168 0-120 53.831-120 120 0 31.18 11.957 59.617 31.522 80.978l20.577-.577.655-20.655c-14.145-15.905-22.754-36.838-22.754-59.746z" fill="#ff617d"/><path d="m458.394 29.999-82.05 82.051-4.715 14.173 16.456-4.701 91.521-91.522-2.25-9.5z" fill="#4bb9ec"/><path d="m381.882 136.475 16.615-4.152 81.11-81.11 10.749-21.213h-10.75l-91.521 91.522z" fill="#4b7eec"/><path d="m217.106 210c0-49.627 40.374-90 90-90 22.909 0 43.842 8.608 59.746 22.754l19.831.169 1.401-21.401c-21.36-19.565-49.797-31.522-80.978-31.522-66.167 0-120 53.831-120 120 0 31.18 11.957 59.617 31.523 80.978l19.477-.478 1.754-20.755c-14.145-15.904-22.754-36.837-22.754-59.745z" fill="#76e2f8"/><g><path d="m409.754 30h69.852l25-5 5-25h-99.852z" fill="#76e2f8"/><path d="m479.606 99.853h30v-99.853l-30 30z" fill="#4bb9ec"/></g><path d="m388.085 121.522-21.232 21.232c18.548 16.498 30.254 40.528 30.254 67.246 0 49.626-40.373 90-90 90-26.717 0-50.747-11.707-67.245-30.255l-21.232 21.232c21.954 23.968 53.489 39.023 88.476 39.023 66.168 0 120-53.832 120-120 0-34.988-15.054-66.523-39.021-88.478z" fill="#4bb9ec"/><path d="m283.085 226.522-21.232 21.232c18.548 16.498 30.254 40.528 30.254 67.246 0 49.626-40.374 90-90 90-26.717 0-50.748-11.707-67.246-30.255l-21.232 21.232c21.955 23.968 53.49 39.023 88.477 39.023 66.168 0 120-53.832 120-120 0-34.988-15.054-66.523-39.021-88.478z" fill="#e7374e"/></g></svg>