<svg xmlns="http://www.w3.org/2000/svg" width="15" height="9" fill="none">
  <g fill="#fff" clip-path="url(#a)">
    <path d="m.477 6.829 6.29-6.44a.547.547 0 0 1 .786 0 .578.578 0 0 1 0 .806l-6.29 6.439a.547.547 0 0 1-.786 0 .578.578 0 0 1 0-.805Z"/>
    <path d="M13.05 7.633 6.76 1.194a.578.578 0 0 1 .18-.928.547.547 0 0 1 .607.124l6.29 6.439a.578.578 0 0 1-.182.927.547.547 0 0 1-.605-.123Z"/>
  </g>
  <defs>
    <clipPath id="a">
      <path fill="#fff" d="M0 0h8.026v14.312H0z" transform="rotate(90 7.156 7.156)"/>
    </clipPath>
  </defs>
</svg>
